<?xml version="1.0" encoding="UTF-8" standalone="no"?>
<svg
   xmlns:dc="http://purl.org/dc/elements/1.1/"
   xmlns:cc="http://creativecommons.org/ns#"
   xmlns:rdf="http://www.w3.org/1999/02/22-rdf-syntax-ns#"
   xmlns:svg="http://www.w3.org/2000/svg"
   xmlns="http://www.w3.org/2000/svg"
   xmlns:sodipodi="http://sodipodi.sourceforge.net/DTD/sodipodi-0.dtd"
   xmlns:inkscape="http://www.inkscape.org/namespaces/inkscape"
   inkscape:version="1.0 (4035a4fb49, 2020-05-01)"
   sodipodi:docname="favicon.svg"
   id="svg14"
   version="1.1"
   height="30.177"
   width="25.576273">
  <metadata
     id="metadata20">
    <rdf:RDF>
      <cc:Work
         rdf:about="">
        <dc:format>image/svg+xml</dc:format>
        <dc:type
           rdf:resource="http://purl.org/dc/dcmitype/StillImage" />
        <dc:title></dc:title>
      </cc:Work>
    </rdf:RDF>
  </metadata>
  <defs
     id="defs18" />
  <sodipodi:namedview
     inkscape:current-layer="svg14"
     inkscape:window-maximized="0"
     inkscape:window-y="302"
     inkscape:window-x="907"
     inkscape:cy="16.5"
     inkscape:cx="61.99991"
     inkscape:zoom="10.475806"
     fit-margin-bottom="0"
     fit-margin-right="0"
     fit-margin-left="0"
     fit-margin-top="0"
     showgrid="false"
     id="namedview16"
     inkscape:window-height="1621"
     inkscape:window-width="1984"
     inkscape:pageshadow="2"
     inkscape:pageopacity="0"
     guidetolerance="10"
     gridtolerance="10"
     objecttolerance="10"
     borderopacity="1"
     bordercolor="#666666"
     pagecolor="#ffffff" />
  <path
     id="path6"
     d="m 7.2659097,29.154 0.523,-3.322 -1.165,-0.027 h -5.563 l 3.866,-24.513 a 0.316,0.316 0 0 1 0.314,-0.268 H 14.62091 c 3.114,0 5.263,0.648 6.385,1.927 0.526,0.6 0.861,1.227 1.023,1.917 0.17,0.724 0.173,1.589 0.007,2.644 l -0.012,0.077 v 0.676 l 0.526,0.298 a 3.69,3.69 0 0 1 1.065,0.812 c 0.45,0.513 0.741,1.165 0.864,1.938 0.127,0.795 0.085,1.741 -0.123,2.812 -0.24,1.232 -0.628,2.305 -1.152,3.183 a 6.547,6.547 0 0 1 -1.825,2 c -0.696,0.494 -1.523,0.869 -2.458,1.109 -0.906,0.236 -1.939,0.355 -3.072,0.355 h -0.73 c -0.522,0 -1.029,0.188 -1.427,0.525 a 2.21,2.21 0 0 0 -0.744,1.328 l -0.055,0.299 -0.924,5.855 -0.042,0.215 c -0.011,0.068 -0.03,0.102 -0.058,0.125 a 0.155,0.155 0 0 1 -0.096,0.035 z"
     fill="#253b80" />
  <path
     id="path8"
     d="m 23.04791,7.667 c -0.028,0.179 -0.06,0.362 -0.096,0.55 -1.237,6.351 -5.469,8.545 -10.874,8.545 H 9.3259097 c -0.661,0 -1.218,0.48 -1.321,1.132 l -1.409,8.936 -0.399,2.533 a 0.704,0.704 0 0 0 0.695,0.814 H 11.77291 c 0.578,0 1.069,-0.42 1.16,-0.99 l 0.048,-0.248 0.919,-5.832 0.059,-0.32 c 0.09,-0.572 0.582,-0.992 1.16,-0.992 h 0.73 c 4.729,0 8.431,-1.92 9.513,-7.476 0.452,-2.321 0.218,-4.259 -0.978,-5.622 a 4.667,4.667 0 0 0 -1.336,-1.03 z"
     fill="#179bd7" />
  <path
     id="path10"
     d="m 21.75391,7.151 a 9.757,9.757 0 0 0 -1.203,-0.267 15.284,15.284 0 0 0 -2.426,-0.177 h -7.352 A 1.172,1.172 0 0 0 9.6139097,7.699 l -1.564,9.906 -0.045,0.289 a 1.336,1.336 0 0 1 1.321,-1.132 H 12.07791 c 5.405,0 9.637,-2.195 10.874,-8.545 0.037,-0.188 0.068,-0.371 0.096,-0.55 a 6.594,6.594 0 0 0 -1.017,-0.429 9.045,9.045 0 0 0 -0.277,-0.087 z"
     fill="#222d65" />
  <path
     id="path12"
     d="M 9.6139097,7.699 A 1.169,1.169 0 0 1 10.77291,6.708 h 7.352 c 0.871,0 1.684,0.057 2.426,0.177 a 9.757,9.757 0 0 1 1.481,0.353 c 0.365,0.121 0.704,0.264 1.017,0.429 0.368,-2.347 -0.003,-3.945 -1.272,-5.392 C 20.37791,0.682 17.85291,0 14.62191,0 H 5.2419097 c -0.66,0 -1.223,0.48 -1.325,1.133 L 0.00990967,25.898 a 0.806,0.806 0 0 0 0.795,0.932 H 6.5959097 l 1.454,-9.225 z"
     fill="#253b80" />
</svg>
